<svg xmlns="http://www.w3.org/2000/svg" xmlns:xlink="http://www.w3.org/1999/xlink" width="26" height="23" viewBox="0 0 26 23" fill="none"><path d="M25.2121 12.2261C20.3016 14.4327 20.164 14.52 16.5001 18.3662C17.4086 13.7095 17.415 9.22825 16.5246 4.63291C17.5596 5.65015 18.3992 6.7591 19.4927 7.48578C21.2881 8.67887 23.2554 9.61168 25.1315 10.6869C25.4376 10.8624 25.7955 11.1786 25.851 11.4808C25.889 11.6895 25.4975 12.098 25.2121 12.2261ZM1.15012 12.2884C0.801022 12.1629 0.552123 11.7591 0.256775 11.4849C0.535472 11.1972 0.762752 10.7634 1.10075 10.6441C6.30747 8.80639 9.86743 5.26613 12.0009 0.223602C15.0934 3.77579 15.0952 18.5823 12.0076 22.7499C9.90803 17.6876 6.33961 14.1567 1.15012 12.2884Z" fill-rule="evenodd"  fill="#6467F2" ></path></svg>